# xmcd CD database file
#
# Track frame offsets:
#	150
#	37627
#	67448
#	128854
#
# Disc length: 2093 seconds
#
# Revision: 0
# Processed by: cddbd v1.5.2PL0 Copyright (c) Steve Scherf et al.
# Submitted via: CDex 1.51
#
DISCID=33082b04
DTITLE=The Ritualist - Hell's Doom Eternal
DYEAR=2017
DGENRE=Doom Metal
TTITLE0=Awaken The Eibon
TTITLE1=Lament For Dying Dreams
TTITLE2=The Suffering/Sulphur Spirits
TTITLE3=Sadomatic Rites
EXTD=YEAR: 2017
EXTT0=
EXTT1=
EXTT2=
EXTT3=
PLAYORDER=
